# xmcd CD database file
#
# Track frame offsets:
#	150
#	25307
#	47422
#	65707
#	84799
#	102515
#	119963
#	139016
#	157107
#	165243
#	183418
#	205062
#	222085
#	231933
#
# Disc length: 3350 seconds
#
# Revision: 0
# Processed by: cddbd v1.5.1PL2 Copyright (c) Steve Scherf et al.
# Submitted via: CDex 1.51
#
DISCID=c20d140e
DTITLE=Sarah Moule - It's A Nice Thought
DYEAR=2002
DGENRE=Jazz
TTITLE0=It's Cool To Be Cool
TTITLE1=It's A Nice Thought
TTITLE2=Jazz Alients
TTITLE3=Feet Do Your Stuff
TTITLE4=When Your Computer Crashes
TTITLE5=This Tune In My Head
TTITLE6=What Fools These Mortals Are
TTITLE7=One Thing Leads To Another
TTITLE8=Love Go Round
TTITLE9=Real Life
TTITLE10=A Suicide In Schenectady
TTITLE11=Some Boys
TTITLE12=The Heart Of Love
TTITLE13=The Usual Suspects
EXTD=YEAR: 2002
EXTT0=
EXTT1=
EXTT2=
EXTT3=
EXTT4=
EXTT5=
EXTT6=
EXTT7=
EXTT8=
EXTT9=
EXTT10=
EXTT11=
EXTT12=
EXTT13=
PLAYORDER=
